<?xml version="1.0" encoding="UTF-8" standalone="no"?>
<svg
   xmlns:dc="http://purl.org/dc/elements/1.1/"
   xmlns:cc="http://creativecommons.org/ns#"
   xmlns:rdf="http://www.w3.org/1999/02/22-rdf-syntax-ns#"
   xmlns:svg="http://www.w3.org/2000/svg"
   xmlns="http://www.w3.org/2000/svg"
   xmlns:xlink="http://www.w3.org/1999/xlink"
   xmlns:sodipodi="http://sodipodi.sourceforge.net/DTD/sodipodi-0.dtd"
   xmlns:inkscape="http://www.inkscape.org/namespaces/inkscape"
   sodipodi:docname="drawing.svg"
   inkscape:version="1.0 (4035a4f, 2020-05-01)"
   id="svg2197"
   version="1.1"
   viewBox="0 0 57.150002 182.49245"
   height="182.49245mm"
   width="57.150002mm">
  <defs
     id="defs2191">
    <pattern
       inkscape:collect="always"
       xlink:href="#pattern416"
       id="pattern1378"
       patternTransform="matrix(0.381,0,0,-0.36638491,0.7559519,-645.36881)" />
    <pattern
       id="pattern416"
       height="135.509"
       width="135.509"
       y="0"
       x="0"
       patternUnits="userSpaceOnUse"
       patternTransform="translate(-50,2364.27)">
      <g
         id="g414">
        <g
           id="g412"
           clip-path="url(#clipPath282)">
          <g
             id="g286"
             transform="translate(130.8826,65.4164)">
            <path
               id="path284"
               style="fill:#000000;fill-opacity:1;fill-rule:nonzero;stroke:none"
               d="m 0,0 c 0,-0.494 -0.401,-0.895 -0.895,-0.895 -0.494,0 -0.895,0.401 -0.895,0.895 0,0.494 0.401,0.895 0.895,0.895 C -0.401,0.895 0,0.494 0,0" />
          </g>
          <g
             id="g290"
             transform="translate(78.7225,107.1875)">
            <path
               id="path288"
               style="fill:#000000;fill-opacity:1;fill-rule:nonzero;stroke:none"
               d="m 0,0 c 0,-0.494 -0.401,-0.895 -0.895,-0.895 -0.494,0 -0.895,0.401 -0.895,0.895 0,0.494 0.401,0.895 0.895,0.895 C -0.401,0.895 0,0.494 0,0" />
          </g>
          <g
             id="g294"
             transform="translate(14.6891,108.54)">
            <path
               id="path292"
               style="fill:#000000;fill-opacity:1;fill-rule:nonzero;stroke:none"
               d="M 0,0 2.965,-2.965 4.05,1.085 0,0 Z M 3.586,-5.283 -2.318,0.621 5.747,2.782 3.586,-5.283 Z" />
          </g>
          <g
             id="g298"
             transform="translate(47.5956,64.9245)">
            <path
               id="path296"
               style="fill:#000000;fill-opacity:1;fill-rule:nonzero;stroke:none"
               d="M 0,0 4.193,0 2.096,3.631 0,0 Z m 6.271,-1.2 -8.349,0 4.174,7.231 4.175,-7.231 z" />
          </g>
          <g
             id="g302"
             transform="translate(114.452,26.2316)">
            <path
               id="path300"
               style="fill:#000000;fill-opacity:1;fill-rule:nonzero;stroke:none"
               d="M 0,0 1.085,-4.051 4.05,-1.085 0,0 Z M 0.464,-6.369 -1.697,1.697 6.368,-0.464 0.464,-6.369 Z" />
          </g>
          <g
             id="g306"
             transform="translate(37.7636,32.0265)">
            <path
               id="path304"
               style="fill:#000000;fill-opacity:1;fill-rule:nonzero;stroke:none"
               d="M 0,0 2.965,-2.965 4.05,1.085 0,0 Z M 3.586,-5.283 -2.318,0.621 5.747,2.782 3.586,-5.283 Z" />
          </g>
          <g
             id="g310"
             transform="translate(93.4206,118.7962)">
            <path
               id="path308"
               style="fill:#000000;fill-opacity:1;fill-rule:nonzero;stroke:none"
               d="M 0,0 4.05,-1.085 2.965,2.965 0,0 Z m 5.747,-2.782 -8.066,2.161 5.905,5.904 2.161,-8.065 z" />
          </g>
          <g
             id="g314"
             transform="translate(118.6734,87.854)">
            <path
               id="path312"
               style="fill:#000000;fill-opacity:1;fill-rule:nonzero;stroke:none"
               d="M 0,0 4.193,0 2.096,3.631 0,0 Z m 6.272,-1.2 -8.35,0 4.174,7.231 4.176,-7.231 z" />
          </g>
          <g
             id="g318"
             transform="translate(111.828,2.1433)">
            <path
               id="path316"
               style="fill:#000000;fill-opacity:1;fill-rule:nonzero;stroke:none"
               d="m 0,0 c -0.35,0.35 -0.35,0.916 0,1.266 0.35,0.349 0.916,0.349 1.266,0 C 1.615,0.916 1.615,0.35 1.266,0 0.916,-0.35 0.35,-0.35 0,0" />
          </g>
          <g
             id="g322"
             transform="translate(37.4511,126.3781)">
            <path
               id="path320"
               style="fill:#000000;fill-opacity:1;fill-rule:nonzero;stroke:none"
               d="m 0,0 c 0,-0.494 -0.401,-0.895 -0.895,-0.895 -0.494,0 -0.895,0.401 -0.895,0.895 0,0.494 0.401,0.895 0.895,0.895 C -0.401,0.895 0,0.494 0,0" />
          </g>
          <g
             id="g326"
             transform="translate(74.7769,69.0166)">
            <path
               id="path324"
               style="fill:#000000;fill-opacity:1;fill-rule:nonzero;stroke:none"
               d="m 0,0 c 0,-0.494 -0.401,-0.895 -0.895,-0.895 -0.494,0 -0.895,0.401 -0.895,0.895 0,0.494 0.401,0.895 0.895,0.895 C -0.401,0.895 0,0.494 0,0" />
          </g>
          <g
             id="g330"
             transform="translate(99.2224,45.5269)">
            <path
               id="path328"
               style="fill:#000000;fill-opacity:1;fill-rule:nonzero;stroke:none"
               d="m 0,0 c 0,-0.494 -0.401,-0.895 -0.895,-0.895 -0.494,0 -0.895,0.401 -0.895,0.895 0,0.494 0.401,0.895 0.895,0.895 C -0.401,0.895 0,0.494 0,0" />
          </g>
          <g
             id="g334"
             transform="translate(32.4331,46.2056)">
            <path
               id="path332"
               style="fill:#000000;fill-opacity:1;fill-rule:nonzero;stroke:none"
               d="m 0,0 c 0,-0.494 -0.401,-0.895 -0.895,-0.895 -0.494,0 -0.895,0.401 -0.895,0.895 0,0.494 0.401,0.895 0.895,0.895 C -0.401,0.895 0,0.494 0,0" />
          </g>
          <g
             id="g338"
             transform="translate(56.5618,16.5175)">
            <path
               id="path336"
               style="fill:#000000;fill-opacity:1;fill-rule:nonzero;stroke:none"
               d="m 0,0 c 0,-0.494 -0.401,-0.895 -0.895,-0.895 -0.494,0 -0.895,0.401 -0.895,0.895 0,0.494 0.401,0.895 0.895,0.895 C -0.401,0.895 0,0.494 0,0" />
          </g>
          <g
             id="g342"
             transform="translate(5.5078,16.8337)">
            <path
               id="path340"
               style="fill:#000000;fill-opacity:1;fill-rule:nonzero;stroke:none"
               d="m 0,0 c 0,-0.494 -0.401,-0.895 -0.895,-0.895 -0.494,0 -0.895,0.401 -0.895,0.895 0,0.494 0.401,0.895 0.895,0.895 C -0.401,0.895 0,0.494 0,0" />
          </g>
          <g
             id="g346"
             transform="translate(7.2247,90.1833)">
            <path
               id="path344"
               style="fill:#000000;fill-opacity:1;fill-rule:nonzero;stroke:none"
               d="m 0,0 c 0,-0.494 -0.401,-0.895 -0.895,-0.895 -0.494,0 -0.895,0.401 -0.895,0.895 0,0.494 0.401,0.895 0.895,0.895 C -0.401,0.895 0,0.494 0,0" />
          </g>
          <g
             id="g350"
             transform="translate(9.8367,36.7025)">
            <path
               id="path348"
               style="fill:#000000;fill-opacity:1;fill-rule:nonzero;stroke:none"
               d="m 0,0 c 0,-1.443 -1.169,-2.612 -2.612,-2.612 -1.443,0 -2.612,1.169 -2.612,2.612 0,1.443 1.169,2.612 2.612,2.612 C -1.169,2.612 0,1.443 0,0" />
          </g>
          <g
             id="g354"
             transform="translate(108.4438,64.4281)">
            <path
               id="path352"
               style="fill:#000000;fill-opacity:1;fill-rule:nonzero;stroke:none"
               d="m 0,0 c 0,-1.443 -1.169,-2.612 -2.612,-2.612 -1.443,0 -2.612,1.169 -2.612,2.612 0,1.443 1.169,2.612 2.612,2.612 C -1.169,2.612 0,1.443 0,0" />
          </g>
          <g
             id="g358"
             transform="translate(63.0196,87.3604)">
            <path
               id="path356"
               style="fill:#000000;fill-opacity:1;fill-rule:nonzero;stroke:none"
               d="m 0,0 c 0,-1.443 -1.169,-2.612 -2.612,-2.612 -1.443,0 -2.612,1.169 -2.612,2.612 0,1.443 1.169,2.612 2.612,2.612 C -1.169,2.612 0,1.443 0,0" />
          </g>
          <g
             id="g362"
             transform="translate(61.1261,43.8021)">
            <path
               id="path360"
               style="fill:#000000;fill-opacity:1;fill-rule:nonzero;stroke:none"
               d="m 0,0 c 0,-1.443 -1.169,-2.612 -2.612,-2.612 -1.443,0 -2.612,1.169 -2.612,2.612 0,1.443 1.169,2.612 2.612,2.612 C -1.169,2.612 0,1.443 0,0" />
          </g>
          <g
             id="g366"
             transform="translate(6.3296,130.8734)">
            <path
               id="path364"
               style="fill:#000000;fill-opacity:1;fill-rule:nonzero;stroke:none"
               d="m 0,0 c 0,-1.443 -1.169,-2.612 -2.612,-2.612 -1.443,0 -2.612,1.169 -2.612,2.612 0,1.443 1.169,2.612 2.612,2.612 C -1.169,2.612 0,1.443 0,0" />
          </g>
          <g
             id="g370"
             transform="translate(92.7424,17.9484)">
            <path
               id="path368"
               style="fill:#000000;fill-opacity:1;fill-rule:nonzero;stroke:none"
               d="m 0,0 c 0,-1.443 -1.169,-2.612 -2.612,-2.612 -1.443,0 -2.612,1.169 -2.612,2.612 0,1.443 1.169,2.612 2.612,2.612 C -1.169,2.612 0,1.443 0,0" />
          </g>
          <g
             id="g374"
             transform="translate(49.5392,104.657)">
            <path
               id="path372"
               style="fill:#000000;fill-opacity:1;fill-rule:nonzero;stroke:none"
               d="m 0,0 c -3.513,0 -6.371,2.858 -6.371,6.371 l 1.2,0 C -5.171,3.52 -2.851,1.2 0,1.2 c 2.851,0 5.171,2.32 5.171,5.171 l 1.2,0 C 6.371,2.858 3.513,0 0,0" />
          </g>
          <g
             id="g378"
             transform="translate(73.882,3.9765)">
            <path
               id="path376"
               style="fill:#000000;fill-opacity:1;fill-rule:nonzero;stroke:none"
               d="m 0,0 c -3.513,0 -6.371,2.858 -6.371,6.371 0,3.514 2.858,6.372 6.371,6.372 l 0,-1.2 c -2.851,0 -5.171,-2.32 -5.171,-5.172 C -5.171,3.52 -2.851,1.2 0,1.2 L 0,0 Z" />
          </g>
          <g
             id="g382"
             transform="translate(18.7587,64.8689)">
            <path
               id="path380"
               style="fill:#000000;fill-opacity:1;fill-rule:nonzero;stroke:none"
               d="m 0,0 -1.2,0 c 0,2.852 -2.32,5.171 -5.171,5.171 -2.852,0 -5.172,-2.319 -5.172,-5.171 l -1.2,0 c 0,3.513 2.858,6.371 6.372,6.371 C -2.858,6.371 0,3.513 0,0" />
          </g>
          <g
             id="g386"
             transform="translate(85.6669,84.3407)">
            <path
               id="path384"
               style="fill:#000000;fill-opacity:1;fill-rule:nonzero;stroke:none"
               d="m 0,0 c -1.702,0 -3.302,0.663 -4.505,1.866 l 0.848,0.849 C -2.68,1.738 -1.381,1.2 0,1.2 c 1.381,0 2.68,0.538 3.657,1.515 2.015,2.016 2.015,5.297 0,7.313 l 0.848,0.849 C 6.989,8.392 6.989,4.351 4.505,1.866 3.302,0.663 1.702,0 0,0" />
          </g>
          <path
             id="path388"
             style="fill:#000000;fill-opacity:1;fill-rule:nonzero;stroke:none"
             d="m 72.318,121.283 -6.965,0 0,1.2 6.965,0 0,-1.2 z" />
          <path
             id="path390"
             style="fill:#000000;fill-opacity:1;fill-rule:nonzero;stroke:none"
             d="m 69.436,118.4 -1.2,0 0,6.965 1.2,0 0,-6.965 z" />
          <path
             id="path392"
             style="fill:#000000;fill-opacity:1;fill-rule:nonzero;stroke:none"
             d="m 28.842,10.266 -6.965,0 0,1.2 6.965,0 0,-1.2 z" />
          <path
             id="path394"
             style="fill:#000000;fill-opacity:1;fill-rule:nonzero;stroke:none"
             d="m 25.959,7.383 -1.2,0 0,6.965 1.2,0 0,-6.965 z" />
          <path
             id="path396"
             style="fill:#000000;fill-opacity:1;fill-rule:nonzero;stroke:none"
             d="m 32.972,83.996 -1.2,0 0,6.965 1.2,0 0,-6.965 z" />
          <path
             id="path398"
             style="fill:#000000;fill-opacity:1;fill-rule:nonzero;stroke:none"
             d="m 35.854,86.878 -6.965,0 0,1.2 6.965,0 0,-1.2 z" />
          <path
             id="path400"
             style="fill:#000000;fill-opacity:1;fill-rule:nonzero;stroke:none"
             d="m 121.157,114.746 -1.2,0 0,6.965 1.2,0 0,-6.965 z" />
          <path
             id="path402"
             style="fill:#000000;fill-opacity:1;fill-rule:nonzero;stroke:none"
             d="m 124.039,117.629 -6.965,0 0,1.2 6.965,0 0,-1.2 z" />
          <path
             id="path404"
             style="fill:#000000;fill-opacity:1;fill-rule:nonzero;stroke:none"
             d="m 124.016,41.97 -1.2,0 0,6.965 1.2,0 0,-6.965 z" />
          <path
             id="path406"
             style="fill:#000000;fill-opacity:1;fill-rule:nonzero;stroke:none"
             d="m 126.898,44.852 -6.965,0 0,1.2 6.965,0 0,-1.2 z" />
          <path
             id="path408"
             style="fill:#000000;fill-opacity:1;fill-rule:nonzero;stroke:none"
             d="m 82.279,42.088 -1.2,0 0,6.965 1.2,0 0,-6.965 z" />
          <path
             id="path410"
             style="fill:#000000;fill-opacity:1;fill-rule:nonzero;stroke:none"
             d="m 85.162,44.97 -6.965,0 0,1.2 6.965,0 0,-1.2 z" />
        </g>
      </g>
    </pattern>
    <clipPath
       id="clipPath282"
       clipPathUnits="userSpaceOnUse">
      <path
         id="path280"
         d="M 0,0 H 135.509 V 135.509 H 0 Z" />
    </clipPath>
  </defs>
  <sodipodi:namedview
     inkscape:window-maximized="0"
     inkscape:window-y="23"
     inkscape:window-x="2240"
     inkscape:window-height="1174"
     inkscape:window-width="1252"
     fit-margin-bottom="0"
     fit-margin-right="0"
     fit-margin-left="0"
     fit-margin-top="-0.7"
     inkscape:snap-page="true"
     showgrid="false"
     inkscape:document-rotation="0"
     inkscape:current-layer="layer1"
     inkscape:document-units="px"
     inkscape:cy="416.23321"
     inkscape:cx="321.99325"
     inkscape:zoom="0.9"
     inkscape:pageshadow="2"
     inkscape:pageopacity="0.0"
     borderopacity="1.0"
     bordercolor="#666666"
     pagecolor="#ffffff"
     id="base" />
  <metadata
     id="metadata2194">
    <rdf:RDF>
      <cc:Work
         rdf:about="">
        <dc:format>image/svg+xml</dc:format>
        <dc:type
           rdf:resource="http://purl.org/dc/dcmitype/StillImage" />
        <dc:title></dc:title>
      </cc:Work>
    </rdf:RDF>
  </metadata>
  <g
     transform="translate(-19.805952,-38.371629)"
     id="layer1"
     inkscape:groupmode="layer"
     inkscape:label="Layer 1">
    <path
       d="m 19.805952,220.86408 h 57.15 V 37.671629 h -57.15 z"
       style="fill:url(#pattern1378);fill-opacity:1;fill-rule:nonzero;stroke:none;stroke-width:0.373621"
       id="path418" />
  </g>
</svg>
